<svg width="22" height="16" viewBox="0 0 22 16" fill="none" xmlns="http://www.w3.org/2000/svg">
<path d="M21.45 2.42857C21.175 1.42857 20.4875 0.714286 19.525 0.428572C17.875 2.55448e-07 10.8625 0 10.8625 0C10.8625 0 3.98751 2.55448e-07 2.20001 0.428572C1.23751 0.714286 0.549996 1.42857 0.274996 2.42857C-4.20026e-06 4.28572 0 8 0 8C0 8 4.17978e-06 11.7143 0.412504 13.5714C0.687504 14.5714 1.375 15.2857 2.3375 15.5714C3.9875 16 11 16 11 16C11 16 17.875 16 19.6625 15.5714C20.625 15.2857 21.3125 14.5714 21.5875 13.5714C22 11.7143 22 8 22 8C22 8 22 4.28572 21.45 2.42857ZM8.79999 11.4286V4.57143L14.575 8L8.79999 11.4286Z" fill="#55BAF1"/>
</svg>
